<svg width="19" height="17" viewBox="0 0 19 17" fill="none" xmlns="http://www.w3.org/2000/svg">
<mask id="mask0" style="mask-type:alpha" maskUnits="userSpaceOnUse" x="-1" y="0" width="20" height="18">
<path d="M18.5 9L9.5 0H-0.5V18H18.5V9Z" fill="black"/>
</mask>
<g mask="url(#mask0)">
<path fill-rule="evenodd" clip-rule="evenodd" d="M17 2H1V16H17V2ZM1 1H0V2V16V17H1H17H18V16V2V1H17H1Z" fill="#ffffff"/>
<rect opacity="0.4" x="8" y="3" width="2" height="13" fill="#ffffff"/>
<rect opacity="0.22" x="1" y="3" width="7" height="6" fill="#ffffff"/>
<rect opacity="0.22" x="10" y="10" width="7" height="6" fill="#ffffff"/>
<line opacity="0.4" x1="1" y1="9.5" x2="17" y2="9.5" stroke="#ffffff"/>
<g opacity="0.12">
<rect x="1" y="5" width="16" height="2" fill="#ffffff"/>
<rect x="1" y="12" width="16" height="2" fill="#ffffff"/>
</g>
<rect x="1" y="1" width="16" height="2" fill="#ffffff"/>
</g>
<path d="M19 7.5V0H11.5L19 7.5Z" fill="#ffffff"/>
</svg>
